<?xml version="1.0" encoding="utf-8"?>
<!-- Generator: Adobe Illustrator 26.1.0, SVG Export Plug-In . SVG Version: 6.00 Build 0)  -->
<svg version="1.1" xmlns="http://www.w3.org/2000/svg" xmlns:xlink="http://www.w3.org/1999/xlink" x="0px" y="0px"
	 viewBox="0 0 196.9 197.2" style="enable-background:new 0 0 196.9 197.2;" xml:space="preserve">
<style type="text/css">
	.st0{fill:#FFFFFF;}
	.st1{fill:url(#SVGID_1_);}
	.st2{fill:#00AA00;}
</style>
<g id="Layer_1">
</g>
<g id="WF">
	<g>
		<ellipse class="st0" cx="99.2" cy="99.3" rx="81.4" ry="83"/>
		<g>
			<g>
				
					<linearGradient id="SVGID_1_" gradientUnits="userSpaceOnUse" x1="4.6266" y1="153.9858" x2="344.5365" y2="153.9858" gradientTransform="matrix(1 0 0 -1 0 252.5781)">
					<stop  offset="1.129491e-06" style="stop-color:#00AA00"/>
					<stop  offset="0.6574" style="stop-color:#00E96A;stop-opacity:0.9791"/>
				</linearGradient>
				<path class="st1" d="M140,81c0-0.8-0.5-1.1-1.3-1.1h-5.3c-1.4,0-2.4,0.3-3.1,1c-1.2,1.1-1.9,2.3-1.9,3.4v2.1
					c0,1.9-1.1,3.3-3.4,4c-0.7,0.2-1.4,0.3-2.1,0.3s-1.5-0.1-2.1-0.3c-0.7-0.2-1.2-0.5-1.7-0.9c-1-0.8-1.6-1.9-1.6-3.1v-2.2
					c0-3,1.3-5.6,4-7.8s5.9-3.2,9.6-3.2h27.1c1.2,0,2.1,0.3,2.9,1c0.8,0.7,1.2,1.3,1.2,2c0,0.7-0.1,1.2-0.3,1.7
					c-0.2,0.4-0.5,0.8-0.9,1.1c-0.8,0.6-1.8,1-2.9,1h-6.5c-1.4,0-2.5,0.3-3.2,0.9c-1.3,1.1-1.9,2.2-1.9,3.5v12.9h8.9
					c1.1,0,2,0.2,2.6,0.7c1,0.8,1.6,1.5,1.6,2.3c0,0.8-0.1,1.3-0.3,1.7s-0.5,0.8-0.9,1.1c-0.8,0.7-1.8,1-3,1h-9v8.8
					c0,3.1-1.3,5.7-4,7.8c-2.7,2.2-5.9,3.2-9.6,3.2h-5.4c-1.2,0-2.1-0.3-3-1s-1.2-1.4-1.2-2.4s0.4-1.7,1.2-2.4c0.8-0.7,1.8-1,3-1
					h2.6c1.5,0,2.7-0.3,3.5-0.9c1.3-1,2-2.2,2-3.4v-8.7h-2c-1.1,0-2-0.2-2.6-0.7c-1-0.8-1.6-1.5-1.6-2.3c0-0.8,0.1-1.3,0.3-1.7
					c0.2-0.4,0.5-0.8,0.9-1.1c0.8-0.7,1.8-1,3-1h2v-9.1c0-2.4,1.3-4.5,3.9-6.5C139.8,81.5,140,81.2,140,81z"/>
			</g>
		</g>
		<g>
			<path class="st2" d="M94.5,77.7c0-1.2,0.4-2.2,1.2-2.8c1.3-1.1,2.8-1.6,4.4-1.6c1.5,0,2.7,0.3,3.4,0.9c1.3,1.1,2,2.3,2,3.5
				l-0.1,36.8c0,3.3-1.4,6-4.3,8c-2.8,2-6.3,2.9-10.7,2.9c-4.9,0-8.6-1.2-11.2-3.7c-0.3-0.3-0.7-0.4-1.1-0.4s-0.7,0.2-1.1,0.4
				c-2.6,2.5-6.3,3.7-11.3,3.7c-4.4,0-7.9-1-10.7-2.9c-2.9-2.1-4.3-4.8-4.3-8.1V80.7h-2c-1.5,0-2.6,0.3-3.4,1
				c-1.3,1.1-1.9,2.3-1.9,3.5v2.1c0,1.9-1.1,3.3-3.4,4c-0.7,0.2-1.4,0.3-2.1,0.3c-0.8,0-1.5-0.1-2.1-0.3c-0.7-0.2-1.2-0.5-1.7-0.9
				c-1-0.8-1.6-1.9-1.6-3.1v-2.2c0-3.1,1.4-5.7,4.1-7.8c2.7-2.2,5.9-3.2,9.6-3.2h10.1c1.5,0,2.7,0.3,3.4,0.9c1.3,1.1,2,2.3,2,3.5
				v36.2c0,1.3,0.5,2.2,1.5,2.9c1,0.7,2.3,1,3.8,1s2.8-0.3,3.9-1s1.6-1.7,1.6-3v-37c0-1.2,0.4-2.2,1.2-2.8c1.3-1.1,2.8-1.6,4.4-1.6
				c1.5,0,2.7,0.3,3.4,0.9c1.3,1.1,2,2.3,2,3.5v37c0,1.3,0.5,2.3,1.6,3s2.3,1,3.9,1s2.8-0.3,3.9-1s1.6-1.7,1.6-2.9L94.5,77.7z"/>
		</g>
	</g>
</g>
</svg>
