<?xml version="1.0" encoding="utf-8"?>
<!-- Generator: Adobe Illustrator 26.1.0, SVG Export Plug-In . SVG Version: 6.00 Build 0)  -->
<svg version="1.1" id="Layer_1" xmlns="http://www.w3.org/2000/svg" xmlns:xlink="http://www.w3.org/1999/xlink" x="0px" y="0px"
	 viewBox="0 0 504 94" style="enable-background:new 0 0 504 94;" xml:space="preserve">
<style type="text/css">
	.st0{fill:#00AA00;}
	.st1{fill:#0AAFFF;}
	.st2{fill:url(#SVGID_1_);}
	.st3{fill:url(#SVGID_00000143613588169110465760000008790648150988778122_);}
	.st4{fill:url(#SVGID_00000078027648232703666600000006336025447576413347_);}
	.st5{fill:url(#SVGID_00000000224792659242677110000010926082492791240854_);}
	.st6{fill:url(#SVGID_00000075127754388310327530000014171414601550117567_);}
	.st7{fill:url(#SVGID_00000181054564837185091830000003723051646683685050_);}
	.st8{fill:url(#SVGID_00000054964630157890601240000018350127149567648926_);}
	.st9{fill:url(#SVGID_00000133507519157064128480000017242562876684825479_);}
</style>
<g>
	<path class="st0" d="M77.9,26.6c0-1.2,0.4-2.2,1.2-2.8c1.3-1.1,2.8-1.6,4.4-1.6c1.5,0,2.7,0.3,3.4,0.9c1.3,1.1,2,2.3,2,3.5
		l-0.1,36.8c0,3.3-1.4,6-4.3,8c-2.8,2-6.3,2.9-10.7,2.9c-4.9,0-8.6-1.2-11.2-3.7c-0.3-0.3-0.7-0.4-1.1-0.4c-0.4,0-0.7,0.2-1.1,0.4
		c-2.6,2.5-6.3,3.7-11.3,3.7c-4.4,0-7.9-1-10.7-2.9c-2.9-2.1-4.3-4.8-4.3-8.1V29.6h-2c-1.5,0-2.6,0.3-3.4,1
		c-1.3,1.1-1.9,2.3-1.9,3.5v2.1c0,1.9-1.1,3.3-3.4,4c-0.7,0.2-1.4,0.3-2.1,0.3c-0.8,0-1.5-0.1-2.1-0.3c-0.7-0.2-1.2-0.5-1.7-0.9
		c-1-0.8-1.6-1.9-1.6-3.1v-2.2c0-3.1,1.4-5.7,4.1-7.8c2.7-2.2,5.9-3.2,9.6-3.2h10.1c1.5,0,2.7,0.3,3.4,0.9c1.3,1.1,2,2.3,2,3.5v36.2
		c0,1.3,0.5,2.2,1.5,2.9c1,0.7,2.3,1,3.8,1s2.8-0.3,3.9-1c1.1-0.7,1.6-1.7,1.6-3v-37c0-1.2,0.4-2.2,1.2-2.8c1.3-1.1,2.8-1.6,4.4-1.6
		c1.5,0,2.7,0.3,3.4,0.9c1.3,1.1,2,2.3,2,3.5v37c0,1.3,0.5,2.3,1.6,3c1.1,0.7,2.3,1,3.9,1s2.8-0.3,3.9-1c1.1-0.7,1.6-1.7,1.6-2.9
		L77.9,26.6z"/>
</g>
<ellipse class="st1" cx="118.1" cy="53.2" rx="18.9" ry="18.1"/>
<g>
	<g>
		<linearGradient id="SVGID_1_" gradientUnits="userSpaceOnUse" x1="148.17" y1="45.245" x2="488.08" y2="45.245">
			<stop  offset="1.129491e-06" style="stop-color:#00AA00"/>
			<stop  offset="0.6574" style="stop-color:#00E96A;stop-opacity:0.9791"/>
		</linearGradient>
		<path class="st2" d="M169.1,33c0.8,0,1.5,0.1,2.3,0.3c0.7,0.2,1.4,0.5,2.1,0.8c1.5,0.9,2.2,2.1,2.2,3.6c0,1.2-0.4,2.2-1.2,2.8
			c-1.4,1.1-2.7,1.6-3.9,1.6c-1.5,0-2.9-0.4-4.2-1.2c-1-0.5-2.1-0.8-3.3-0.8c-1.2,0-2.2,0.3-2.9,1s-1.1,1.4-1.1,2.4v26.4
			c0,1.2-0.4,2.1-1.1,2.8c-1.4,1.1-2.6,1.6-3.8,1.6s-2-0.1-2.7-0.4c-0.7-0.2-1.2-0.6-1.7-0.9c-1.1-0.9-1.6-1.9-1.6-3.1V37.5
			c0-1.2,0.4-2.2,1.2-2.8c1.3-1.1,2.5-1.6,3.7-1.6c1.2,0,2.1,0.1,2.6,0.3c0.6,0.2,1.1,0.5,1.5,0.7c0.6,0.4,0.9,0.8,1.2,1.2
			s0.4,0.7,0.6,0.9c0.2,0.2,0.4,0.3,0.8,0.3s0.7-0.1,0.9-0.3l0.8-0.6C164,33.9,166.5,33,169.1,33z"/>
		
			<linearGradient id="SVGID_00000126303362535033714240000003782302974122604465_" gradientUnits="userSpaceOnUse" x1="148.17" y1="45.245" x2="488.08" y2="45.245">
			<stop  offset="1.129491e-06" style="stop-color:#00AA00"/>
			<stop  offset="0.6574" style="stop-color:#00E96A;stop-opacity:0.9791"/>
		</linearGradient>
		<path style="fill:url(#SVGID_00000126303362535033714240000003782302974122604465_);" d="M200,62.5c0,1.3,0.4,2.2,1.1,2.8
			c1.4,1,2.8,1.6,4.3,1.6h0.5c1.1,0,2,0.2,2.6,0.8c1.1,0.8,1.6,1.6,1.6,2.3c0,0.7-0.1,1.2-0.3,1.7s-0.5,0.8-0.9,1.1
			c-0.9,0.7-1.9,1-3,1h-3.2c-3.8,0-7-1.1-9.6-3.2c-2.7-2.2-4-4.8-4-7.8V20.6c0-1.2,0.4-2.2,1.1-2.8c1.3-1.1,2.8-1.6,4.3-1.6
			c1.6,0,2.7,0.3,3.5,0.9c1.3,1.1,2,2.2,2,3.5L200,62.5L200,62.5z"/>
		
			<linearGradient id="SVGID_00000054953711457084846890000017682922919027437238_" gradientUnits="userSpaceOnUse" x1="148.17" y1="45.245" x2="488.08" y2="45.245">
			<stop  offset="1.129491e-06" style="stop-color:#00AA00"/>
			<stop  offset="0.6574" style="stop-color:#00E96A;stop-opacity:0.9791"/>
		</linearGradient>
		<path style="fill:url(#SVGID_00000054953711457084846890000017682922919027437238_);" d="M251.2,69.9c0,1.9-1.1,3.2-3.3,4
			c-0.7,0.2-1.4,0.4-2.2,0.4s-1.5-0.1-2.1-0.3c-0.6-0.2-1.1-0.4-1.5-0.7c-0.6-0.4-0.9-0.8-1.2-1.2s-0.4-0.7-0.6-0.9
			c-0.2-0.3-0.5-0.4-0.8-0.4s-0.7,0.1-1,0.3l-0.8,0.6c-2,1.7-4.4,2.5-7.2,2.5c-3.3,0-6.2-1.1-8.6-3.3c-2.4-2.1-3.6-4.7-3.6-7.8V44.8
			c0-3,1.3-5.6,4-7.8c2.7-2.2,5.9-3.2,9.6-3.2h8.2V20.6c0-1.2,0.4-2.2,1.1-2.8c1.3-1.1,2.8-1.6,4.3-1.6c1.6,0,2.7,0.3,3.5,0.9
			c1.3,1.1,2,2.2,2,3.5L251.2,69.9L251.2,69.9z M229.3,63.6c0,1.3,0.5,2.2,1.6,2.9c1,0.7,2.1,1,3.3,1s2.1-0.1,2.7-0.3
			c0.7-0.2,1.2-0.4,1.7-0.8c1.1-0.7,1.7-1.6,1.7-2.8V40.5h-5.5c-1.5,0-2.7,0.3-3.5,1c-1.3,1.1-2,2.2-2,3.5L229.3,63.6L229.3,63.6z"
			/>
		
			<linearGradient id="SVGID_00000096768121052577403860000017141323211139240374_" gradientUnits="userSpaceOnUse" x1="148.17" y1="45.245" x2="488.08" y2="45.245">
			<stop  offset="1.129491e-06" style="stop-color:#00AA00"/>
			<stop  offset="0.6574" style="stop-color:#00E96A;stop-opacity:0.9791"/>
		</linearGradient>
		<path style="fill:url(#SVGID_00000096768121052577403860000017141323211139240374_);" d="M283.5,30.7c0-0.8-0.5-1.1-1.3-1.1h-5.3
			c-1.4,0-2.4,0.3-3.1,1c-1.2,1.1-1.9,2.3-1.9,3.4v2.1c0,1.9-1.1,3.3-3.4,4c-0.7,0.2-1.4,0.3-2.1,0.3s-1.5-0.1-2.1-0.3
			c-0.7-0.2-1.2-0.5-1.7-0.9c-1-0.8-1.6-1.9-1.6-3.1v-2.2c0-3,1.3-5.6,4-7.8c2.7-2.2,5.9-3.2,9.6-3.2h27.1c1.2,0,2.1,0.3,2.9,1
			c0.8,0.7,1.2,1.3,1.2,2c0,0.7-0.1,1.2-0.3,1.7c-0.2,0.4-0.5,0.8-0.9,1.1c-0.8,0.6-1.8,1-2.9,1h-6.5c-1.4,0-2.5,0.3-3.2,0.9
			c-1.3,1.1-1.9,2.2-1.9,3.5V47h8.9c1.1,0,2,0.2,2.6,0.7c1,0.8,1.6,1.5,1.6,2.3s-0.1,1.3-0.3,1.7s-0.5,0.8-0.9,1.1
			c-0.8,0.7-1.8,1-3,1H290v8.8c0,3.1-1.3,5.7-4,7.8c-2.7,2.2-5.9,3.2-9.6,3.2H271c-1.2,0-2.1-0.3-3-1s-1.2-1.4-1.2-2.4
			s0.4-1.7,1.2-2.4c0.8-0.7,1.8-1,3-1h2.6c1.5,0,2.7-0.3,3.5-0.9c1.3-1,2-2.2,2-3.4v-8.7h-2c-1.1,0-2-0.2-2.6-0.7
			c-1-0.8-1.6-1.5-1.6-2.3s0.1-1.3,0.3-1.7c0.2-0.4,0.5-0.8,0.9-1.1c0.8-0.7,1.8-1,3-1h2v-9.1c0-2.4,1.3-4.5,3.9-6.5
			C283.3,31.2,283.5,30.9,283.5,30.7z"/>
		
			<linearGradient id="SVGID_00000092424212568048279570000011796964011891112884_" gradientUnits="userSpaceOnUse" x1="148.17" y1="45.245" x2="488.08" y2="45.245">
			<stop  offset="1.129491e-06" style="stop-color:#00AA00"/>
			<stop  offset="0.6574" style="stop-color:#00E96A;stop-opacity:0.9791"/>
		</linearGradient>
		<path style="fill:url(#SVGID_00000092424212568048279570000011796964011891112884_);" d="M312.9,44c0-3.4,1.4-6,4.2-8
			c3-2,7-3,12.2-3c5.1,0,9.1,1,12.1,3c2.9,2,4.3,4.7,4.3,8.1v19.3c0,5.2-3.1,8.6-9.4,10.2c-2,0.5-4.4,0.8-7,0.8s-4.9-0.3-7-0.8
			s-3.8-1.2-5.2-2.2c-2.9-1.9-4.3-4.6-4.3-8.1L312.9,44L312.9,44z M334.8,44.2c0-1.2-0.4-2.2-1.1-2.8c-1.4-1.1-2.8-1.6-4.3-1.6
			c-1.5,0-2.7,0.3-3.5,1c-1.3,1.1-2,2.2-2,3.5v19.4c0,1.3,0.5,2.2,1.6,2.9c1,0.7,2.4,1,3.9,1s2.9-0.3,3.9-1c1-0.7,1.6-1.7,1.6-2.9
			V44.2z"/>
		
			<linearGradient id="SVGID_00000099633740540773411430000010355215828750262694_" gradientUnits="userSpaceOnUse" x1="148.17" y1="45.245" x2="488.08" y2="45.245">
			<stop  offset="1.129491e-06" style="stop-color:#00AA00"/>
			<stop  offset="0.6574" style="stop-color:#00E96A;stop-opacity:0.9791"/>
		</linearGradient>
		<path style="fill:url(#SVGID_00000099633740540773411430000010355215828750262694_);" d="M360.1,44c0-3.4,1.4-6,4.2-8
			c3-2,7-3,12.2-3c5.1,0,9.1,1,12.1,3c2.9,2,4.3,4.7,4.3,8.1v19.3c0,5.2-3.1,8.6-9.4,10.2c-2,0.5-4.4,0.8-7,0.8s-4.9-0.3-7-0.8
			c-2-0.5-3.8-1.2-5.2-2.2c-2.9-1.9-4.3-4.6-4.3-8.1L360.1,44L360.1,44z M382,44.2c0-1.2-0.4-2.2-1.1-2.8c-1.4-1.1-2.8-1.6-4.3-1.6
			c-1.5,0-2.7,0.3-3.5,1c-1.3,1.1-2,2.2-2,3.5v19.4c0,1.3,0.5,2.2,1.6,2.9c1,0.7,2.4,1,3.9,1s2.9-0.3,3.9-1c1-0.7,1.6-1.7,1.6-2.9
			V44.2z"/>
		
			<linearGradient id="SVGID_00000032617132027620399050000016771015115422064262_" gradientUnits="userSpaceOnUse" x1="148.17" y1="45.245" x2="488.08" y2="45.245">
			<stop  offset="1.129491e-06" style="stop-color:#00AA00"/>
			<stop  offset="0.6574" style="stop-color:#00E96A;stop-opacity:0.9791"/>
		</linearGradient>
		<path style="fill:url(#SVGID_00000032617132027620399050000016771015115422064262_);" d="M440.2,69.9c0,1.9-1.1,3.2-3.3,4
			c-0.7,0.2-1.4,0.4-2.2,0.4s-1.5-0.1-2.1-0.3c-0.6-0.2-1.1-0.4-1.5-0.7c-0.5-0.4-1-0.8-1.2-1.2c-0.2-0.4-0.4-0.7-0.6-0.9
			c-0.2-0.3-0.5-0.4-0.8-0.4s-0.7,0.1-1,0.3l-0.8,0.6c-2,1.7-4.4,2.5-7.2,2.5c-3.3,0-6.2-1.1-8.6-3.3c-2.4-2.1-3.5-4.7-3.5-7.8V44.8
			c0-3,1.3-5.6,4-7.8c2.7-2.2,5.9-3.2,9.6-3.2h8.2V20.6c0-1.2,0.4-2.2,1.1-2.8c1.3-1.1,2.8-1.6,4.3-1.6c1.6,0,2.7,0.3,3.5,0.9
			c1.3,1.1,2,2.2,2,3.5L440.2,69.9L440.2,69.9z M418.3,63.6c0,1.3,0.5,2.2,1.5,2.9c1,0.7,2.1,1,3.3,1s2.1-0.1,2.7-0.3
			c0.7-0.2,1.2-0.4,1.7-0.8c1.1-0.7,1.7-1.6,1.7-2.8V40.5h-5.5c-1.5,0-2.7,0.3-3.5,1c-1.3,1.1-2,2.2-2,3.5L418.3,63.6L418.3,63.6z"
			/>
		
			<linearGradient id="SVGID_00000085939697255274112720000015905716884150372023_" gradientUnits="userSpaceOnUse" x1="148.17" y1="45.245" x2="488.08" y2="45.245">
			<stop  offset="1.129491e-06" style="stop-color:#00AA00"/>
			<stop  offset="0.6574" style="stop-color:#00E96A;stop-opacity:0.9791"/>
		</linearGradient>
		<path style="fill:url(#SVGID_00000085939697255274112720000015905716884150372023_);" d="M457.7,72.6c-0.8-0.7-1.2-1.3-1.2-2
			s0.1-1.2,0.4-1.7s0.5-0.8,1-1.1c0.8-0.7,1.8-1,2.9-1h10.2c1.9,0,3.4-0.4,4.5-1.3s1.7-1.9,1.7-3.2s-0.4-2.3-1.3-3.1
			c-0.9-0.8-1.9-1.3-3.2-1.7l-8.3-1.9c-2.9-0.7-5.1-2-6.8-3.9c-1.7-1.9-2.6-3.9-2.6-6.1s0.4-3.9,1.2-5.3c0.8-1.4,1.8-2.6,3.2-3.6
			c2.7-2.1,6.1-3.1,10.2-3.1h11.3c1.2,0,2.1,0.3,2.9,1s1.1,1.5,1.1,2.4s-0.4,1.7-1.1,2.4c-0.8,0.6-1.7,1-2.9,1h-10.4
			c-1.6,0-2.8,0.4-3.7,1.1s-1.3,1.6-1.3,2.7c0,1.6,1.1,2.8,3.3,3.6l9,2.1c4.9,1.3,8.1,3.8,9.7,7.5c0.5,1.2,0.8,2.7,0.8,4.3
			s-0.4,3.2-1.2,4.6c-0.8,1.5-1.9,2.7-3.2,3.8c-2.9,2.3-6.2,3.4-10.1,3.4h-12.8C459.5,73.6,458.5,73.2,457.7,72.6z"/>
	</g>
</g>
<path class="st0" d="M123,36h-1h-1h-1l-1.5-0.1L118,36l-1,1h-1l1,1h-1v1l-2,1h-1l-1,1v1h1l3-1l1,1l1.5-0.6L119,42h1h1l1,1v1h-1l-2-1
	l-0.6,1l-1.4-1l-1-1h-2l-2,1l-1,1h-1l-2,2v1v1l1,2l1,1h0.6h1.4h2h0h1v1v1l1,1v1l1,1l-1,1v1l1,1v1l1,1v1h1h1l1-1l1-1l1-1v-1l1-1l1-1
	v-3l1-1l1-1v-1l0.6-1l-0.6-1l1-1l1-1l1-1l1,1l1,1v1l1,1h1v-2l1-2c-0.7-1.3-2-3.2-4-5C127.9,37.3,124.7,36.4,123,36z"/>
<polyline class="st0" points="125,59 125,60 124,62 123,62 123,61 "/>
</svg>
