<svg id="drawbottle" xmlns="http://www.w3.org/2000/svg" viewBox="0 0 226 417.01"><defs><style>.cls-1{stroke:#000;stroke-miterlimit:10;}</style></defs><path class="cls-1" d="M105.23,186.56C90.13,189,80.5,192.79,80.5,197V405.5H9.35A8.85,8.85,0,0,1,.5,396.65V146.05a11.21,11.21,0,0,1,.31-2.64A47,47,0,0,1,27.5,111.5l5.35-83H71.5l3,83a63.88,63.88,0,0,1,29.62,29.57,11.35,11.35,0,0,1,1.11,4.93Z"/><path class="cls-1" d="M158.5,264.5a248.08,248.08,0,0,0,63.52-8V356.69a300,300,0,0,1-128.52-.31V255.54A247.63,247.63,0,0,0,158.5,264.5Z"/><path class="cls-1" d="M158.5,375.5A299.65,299.65,0,0,0,222,368.69V396.5a54.39,54.39,0,0,1-14.52,13c-4.83,2.93-13,6.83-48,7-34.48.17-43.21-3.53-48-6a63.62,63.62,0,0,1-18-14V368.38A300.17,300.17,0,0,0,158.5,375.5Z"/><ellipse class="cls-1" cx="158" cy="205" rx="67.5" ry="13.5"/><path class="cls-1" d="M156.5,224.5a233.88,233.88,0,0,0,65.52-9v29a248.08,248.08,0,0,1-63.52,8,247.63,247.63,0,0,1-65-9v-28A233.9,233.9,0,0,0,156.5,224.5Z"/><path class="cls-1" d="M72.38,20.5H33.5V7.78A7.28,7.28,0,0,1,40.78.5H65.1a7.28,7.28,0,0,1,7.28,7.28Z"/></svg>