<svg id="sparkle" xmlns="http://www.w3.org/2000/svg" viewBox="0 0 577.07 592.63"><defs><style>.cls-1{fill:none;stroke:#1d1d1b;stroke-miterlimit:10;}</style></defs><path d="M574.54,288.21C424,318.55,401.5,343.15,373.78,508,346.06,343.15,323.59,318.55,173,288.21c150.56-30.35,173-54.95,200.75-219.78C401.5,233.26,424,257.86,574.54,288.21Z"/><path class="cls-1" d="M574.54,288.21C424,318.55,401.5,343.15,373.78,508,346.06,343.15,323.59,318.55,173,288.21c150.56-30.35,173-54.95,200.75-219.78C401.5,233.26,424,257.86,574.54,288.21Z"/><path d="M317.91,122.61c-89.89,16.55-103.3,30-119.85,119.85-16.55-89.89-30-103.3-119.85-119.85,89.89-16.55,103.3-30,119.85-119.85C214.61,92.65,228,106.06,317.91,122.61Z"/><path class="cls-1" d="M317.91,122.61c-89.89,16.55-103.3,30-119.85,119.85-16.55-89.89-30-103.3-119.85-119.85,89.89-16.55,103.3-30,119.85-119.85C214.61,92.65,228,106.06,317.91,122.61Z"/><path d="M293.41,434.12C184.35,455.6,168.07,473,148,589.69,127.92,473,111.64,455.6,2.59,434.12,111.64,412.64,127.92,395.23,148,278.55,168.07,395.23,184.35,412.64,293.41,434.12Z"/><path class="cls-1" d="M293.41,434.12C184.35,455.6,168.07,473,148,589.69,127.92,473,111.64,455.6,2.59,434.12,111.64,412.64,127.92,395.23,148,278.55,168.07,395.23,184.35,412.64,293.41,434.12Z"/></svg>