<svg id="face" xmlns="http://www.w3.org/2000/svg" viewBox="0 0 688.07 755.66"><defs><style>.cls-1{fill:#0aafff;}.cls-1,.cls-2{stroke:#0aafff;}.cls-1,.cls-2,.cls-3,.cls-4,.cls-5{stroke-miterlimit:10;}.cls-2{fill:#0a0;}.cls-3{fill:#fff;}.cls-3,.cls-4,.cls-5{stroke:#000;}.cls-5{fill:#b71313;}</style></defs><ellipse class="cls-1" cx="298" cy="470.66" rx="297.5" ry="284.5"/><polygon class="cls-2" points="590.94 420.75 577.5 422.16 569.5 418.16 564.5 415.16 557.5 417.16 545.5 406.16 538.5 403.16 535.5 407.16 541.38 412.66 544.5 419.16 552.11 422.16 558.5 424.16 563.22 422.76 572.5 426.16 581.5 431.16 572.5 438.16 567.5 447.16 549.5 457.16 537.5 464.16 529.51 464.16 520.5 447.16 513.5 443.16 507.5 430.16 500.5 419.16 496.5 410.16 493.5 410.16 489.5 406.16 487.5 411.16 494.5 418.16 499.5 430.16 505.5 443.16 510.5 454.16 518.02 464.16 523.5 469.16 526.5 474.16 535.25 474.16 546.75 470.66 553.5 468.16 557.47 470.66 555.5 478.16 548.5 487.16 541.5 495.16 535.64 502.66 526.5 509.16 519.5 516.16 516.5 523.16 514.5 532.16 515.5 544.16 516.5 555.16 512.5 564.16 505.5 570.16 502.5 576.16 498.5 583.16 500.5 589.16 496.5 593.16 493.5 599.16 489.5 605.16 482.5 614.16 476.5 619.16 470.5 625.16 464.5 628.16 457.5 631.16 452.5 628.16 447.17 631.16 442.96 631.16 439.5 627.16 439.5 620 439.5 615.78 436.5 611.16 431.5 607.16 431.5 598.93 426.5 592.16 426.5 584.38 424.5 578.16 424.5 572.89 421.5 567.16 421.5 560.25 424.5 555.16 426.5 548.16 425.5 542.16 421.5 538.04 421.5 528.85 415.5 524.16 413.08 517.16 413.08 513.15 413.5 509.16 414.5 504.16 413.5 498.16 409.5 495.16 403.5 495.16 400.5 494.16 396.5 489.16 390.5 487.16 383.5 492.16 375.5 491.16 367.5 492.16 359.5 493.16 352.5 493.16 346.5 490.16 339.5 485.16 337.5 480.16 333.5 478.16 328.45 471.13 326.53 470.66 324.5 465.16 321.5 457.16 325.5 451.16 328.5 447.16 328.5 441.16 325.5 436.16 328.5 429.16 333.5 418.16 339.5 412.16 346.5 407.16 351.04 403.16 349.5 398.16 354.5 394.16 357.5 390.16 364.5 388.16 373.25 388.16 382.5 385.16 389.5 383.16 396.5 381.16 403.5 384.16 407.34 381.16 411.17 381.16 415.5 385.16 418.5 389.16 422.5 393.16 426.5 398.16 430.5 398.16 437.5 401.16 441.5 403.16 445.5 399.16 445.5 395.16 451.5 394.16 456.22 394.81 460.5 397.16 463.5 400.16 467.5 400.16 475.5 399.16 483.5 398.16 490.5 398.16 493.5 394.16 494.28 381.16 491.21 381.16 486.5 383.16 483.17 381.16 480.11 381.16 476.5 383.16 470.5 383.16 465.5 379.16 465.5 374.16 464.5 371.16 469.77 371.16 473.98 371.16 477.5 367.16 484.5 365.16 491.98 365.16 497.5 367.16 505.5 369.16 508.06 365.16 505.5 359.16 500.5 356.16 494.5 353.16 499.5 348.16 497.5 344.16 492.5 346.16 490.5 349.16 490.5 352.16 487.5 354.16 483.5 353.16 481.5 348.16 476.5 349.16 473.5 354.16 470.5 356.16 470.5 361.16 473.5 365.16 470.5 367.16 464.5 366.16 460.5 366.16 456.22 367.23 456.22 369.15 456.22 374.13 459.5 378.16 456.22 381.79 452.5 383.16 449.5 380.16 451.5 375.16 447.5 374.16 442.5 372.16 440.5 364.16 433.5 358.16 423.5 354.16 423.5 356.16 428.5 362.16 433.5 366.16 438.5 370.16 439.5 376.16 436.5 379.16 432.5 378.16 432.5 373.16 429.5 369.16 422.5 369.16 420.5 362.16 415.5 357.16 408.5 357.16 403.5 360.16 399.5 358.16 395.5 359.16 393.5 363.16 387.5 368.16 382.5 371.16 379.5 377.16 376.5 382.16 372.5 379.16 368.5 381.16 362.5 380.16 358.5 379.16 354.5 376.16 356.5 371.16 356.5 366.16 356.5 361.16 357.5 357.16 362.5 357.16 368.5 359.16 374.5 358.16 376.5 354.16 377.5 350.16 373.5 348.16 370.96 344.16 368.5 342.16 373.64 342.16 379.5 338.16 385.89 338.16 389.5 334.16 393.5 331.16 398.5 327.16 404.5 325.16 409.5 323.16 416.5 321.16 421.5 323.16 426.11 321.16 431.85 321.16 437.6 321.16 439.89 321.16 442.5 316.16 444.5 311.16 448.32 311.16 452.15 311.16 450.5 306.16 458.28 306.16 466.5 303.16 467.5 299.16 460.5 301.16 454.5 302.16 450.23 299.16 446.79 299.16 444.5 295.16 445.5 291.16 448.5 287.16 446.5 283.16 442.5 287.16 437.5 291.16 435.5 294.16 437.5 300.16 439.5 304.16 439.5 307.16 434.5 307.16 431.5 312.16 427.5 314.16 422.5 314.16 419.5 310.16 418.5 307.16 413.5 307.16 406.5 305.16 403.5 304.16 401.5 300.16 401.5 295.16 403.5 292.16 409.5 290.16 417.5 290.16 419.5 285.16 422.5 281.16 426.5 277.16 432.5 275.16 436.5 271.16 441.04 271.16 447.94 271.16 454.45 271.16 460.96 271.16 464.79 271.16 471.5 273.16 474.5 274.16 478.5 276.16 485.5 277.16 487.5 277.16 487.5 280.16 481.5 283.16 474.5 284.16 470.5 283.16 471.5 288.16 475.5 287.16 478.5 289.16 481.5 286.16 488.5 286.16 494.5 282.16 496.5 276.16 501.5 277.16 506.5 280.16 511.5 278.16 515.2 276.24 524.91 286.66 533.76 297.12 542.72 308.84 549.58 318.75 558.13 332.5 565.33 345.69 571.88 359.38 576.58 370.61 582.21 386.31 587.5 403.16 590.94 420.75"/><polygon class="cls-2" points="550.5 554.16 552.5 562.16 550.5 569.83 544.5 577.16 541.5 585.16 541.5 592.42 537.5 596.16 530.28 596.16 526.06 596.16 526.06 589.74 526.06 582.47 529.5 577.16 527.5 572.16 529.5 566.16 539.28 561.78 544.83 554.16 550.5 554.16"/><polygon class="cls-2" points="362.5 319.16 367.89 319.16 367.89 324.34 365.2 328.55 358.5 331.16 354.5 328.16 357.5 323.16 362.5 319.16"/><polygon class="cls-2" points="375.5 308.16 379.5 313.16 377.5 315.15 381.3 319.16 382.83 325.16 390.49 325.16 390.49 329.32 386.66 331.16 383 334.3 375.5 334.3 371.34 334.3 374.5 328.16 374.5 323.16 371.34 319.16 367.89 315.91 370.5 310.16 375.5 308.16"/><polygon class="cls-2" points="341.5 285.16 350.5 283.16 354.5 287.19 348 290.64 341.5 292.93 335.5 293.16 331.5 290.16 333.5 285.16 341.5 285.16"/><polygon class="cls-2" points="289.5 241.16 298 243.15 305.5 238.16 313.89 238.16 323.85 238.16 331.5 238.16 336.5 235.16 342.5 237.16 349.5 241.16 356.5 241.16 361.2 240.85 357.5 246.16 352.5 248.16 348.5 254.16 344.5 259.16 340.5 261.16 336.5 263.16 331.5 263.16 333.5 265.16 338.5 269.16 336.5 273.16 329.5 275.16 321.5 275.16 317.34 275.16 311.5 278.16 305.5 280.16 299.72 283.16 294.5 286.16 287.08 288.16 283.25 288.16 279.04 293.16 275.5 296.16 272.5 301.16 264.49 301.16 260.5 299.16 258.36 293.16 254.91 288.16 254.91 283.16 259.5 278.16 264.49 271.16 263.5 265.16 261.5 259.16 257.5 256.16 253.5 255.16 246.5 255.16 242.5 256.16 237.5 257.16 234.5 253.16 238.5 249.16 248.5 247.16 255.5 246.16 262.5 243.16 271.5 240.16 277.5 240.16 289.5 241.16"/><polygon class="cls-2" points="211.5 233.16 219.68 233.16 228.11 235.16 234.5 237.78 241.51 237.78 246.49 237.78 252.23 237.78 258.75 237.78 254.5 242.16 248.02 242.16 243.5 244.16 240.36 244.16 238.5 247.16 235.12 247.16 230.5 249.16 226.5 252.16 220.5 254.16 215.5 256.16 211.5 256.16 208.96 256.16 208.96 249.27 207.04 244.66 215.09 244.66 216.5 241.16 212.5 239.16 209.5 238.16 211.5 233.16"/><polygon class="cls-2" points="97.5 264.16 107.5 260.16 114.36 260.16 122.79 262.16 130.06 264.16 135.43 264.16 140.79 264.16 142.32 268.16 143.85 271.16 143.85 273.4 134.5 273.16 129.68 273.4 122.79 273.4 118.5 276.16 113.6 276.16 111.3 271.16 115.89 271.16 114.75 268.16 112.5 266.16 109 268.16 105.94 268.16 102.11 268.16 98.66 268.16 97.5 264.16"/><polygon class="cls-2" points="192.5 242.16 198.62 242.16 202.83 242.16 202.83 246.98 197.66 246.98 192.5 246.98 192.5 242.16"/><polygon class="cls-2" points="155.5 262.16 163 260.16 166.45 262.16 160.97 265.74 155.5 268.16 151.51 264.16 155.5 262.16"/><polygon class="cls-2" points="189.5 252.16 197.66 256.16 202.83 256.16 207.04 260.16 200.15 260.16 192.5 260.16 184.5 258.16 182.5 254.16 185.6 252.16 189.5 252.16"/><polygon class="cls-2" points="224.5 339.16 232.89 341.19 224.5 344.25 217.5 347.16 213.5 345.16 213.5 341.57 216.5 337.16 220.06 337.16 224.5 339.16"/><polygon class="cls-2" points="104.5 429.16 115.5 427.16 123.5 431.16 130.5 435.16 136.5 438.16 132.5 440.16 127 440.16 120.5 438.47 117.81 433.66 112.45 433.66 106.7 433.66 104.5 435.02 102.87 433.66 104.5 429.16"/><polygon class="cls-2" points="143.85 440.16 153.81 440.16 156.5 446.16 150.18 446.16 143.85 446.16 136.5 447.66 134.66 443.91 136.5 441.91 143.85 440.16"/><polygon class="cls-2" points="169.89 288.16 176.02 288.16 178.5 291.16 174.2 293.16 167.98 290.66 164.91 290.66 166.45 288.16 169.89 288.16"/><polygon class="cls-2" points="184.83 268.16 180.23 271.16 180.23 266.51 182.5 264.16 189.04 264.16 197.66 264.16 199.5 266.16 205.13 264.16 211.5 266.16 215.85 268.16 218.15 271.16 221.98 271.16 225.5 273.16 225.5 276.16 230.5 279.16 230.5 283.16 225.5 285.16 223.2 283.16 218.91 285.16 218.15 288.16 218.91 293.16 213.5 293.16 209.72 290.66 213.5 296 210.5 298.16 205.37 298.16 202.83 293.16 199.38 290.66 194.77 288.16 194.77 283.16 197.66 283.16 202.83 281.16 207.04 281.16 208.5 279.16 208.96 276.16 207.04 274.17 203.98 271.16 200.91 271.16 197.66 271.16 192.5 271.16 189.43 271.16 184.83 268.16"/><polygon class="cls-2" points="265.5 529.62 265.5 535.36 265.5 538.16 261.5 542.16 258.5 548.16 253.77 554.16 251.5 559.49 251.5 565.23 251.5 570.98 251.5 579.16 248.5 586.16 245.5 590.16 239.5 591.16 234.5 591.66 232.89 593.57 230.5 594.34 226.5 596.16 223.2 599.7 226.5 601.62 226.5 605.06 226.5 608.89 226.5 613.16 223.2 614.25 223.2 617.32 219.5 618.16 215.5 620.16 213.5 622.29 211.5 623.83 211.5 626.16 207.5 629.16 202.83 631.16 202.83 629.19 197.66 629.57 194.77 631.16 197.66 633.4 199.5 637.16 202.83 639.91 200.5 644.16 197.66 646.81 194.77 646.81 190.5 646.81 190.5 650.16 187.5 652.55 184.5 652.16 182.5 654.85 182.5 657.53 182.5 659.83 185.5 663.16 182.5 669.4 184.5 672.16 187.5 677.06 187.5 682.16 185.5 685.16 182.5 688.17 182.5 693.91 180.23 696.21 174.5 693.16 171.71 689.32 168.5 683.16 164.91 680.51 160.5 675.16 162.5 672.47 162.5 667.16 160.5 659.83 160.5 654.16 156.5 648.34 156.5 642.98 153.5 635.32 153.5 626.89 153.5 621.15 151.51 616.55 151.51 608.89 153.5 604.16 151.51 597.78 148.5 591.16 146 581.32 146 575.16 143.5 569.16 140.5 567.16 134.66 563.7 129.5 559.16 124.7 554.16 122.5 550.16 119.69 544.93 114.5 538.16 110.5 532.16 106.5 529.16 107.5 523.16 109.5 519.16 107.5 515.16 108.5 509.16 110.5 504.16 113.98 502.66 117.5 498.16 119.69 491.7 119.69 487.49 117.81 481.16 115.5 479.16 112.5 479.16 109.38 481.16 105.5 481.16 102.87 480.98 97.5 479.06 92.15 476.38 92.15 471.13 89.5 468.16 85.91 464.16 82.5 464.16 81.04 461.16 77.98 461.16 74.5 461.16 71.08 458.16 67.5 458.16 65.72 454.16 63.81 454.16 59.6 454.16 54.62 454.16 51.5 454.16 46.06 452.64 41.5 449.16 38.53 443.91 33.94 440.16 32.4 433.66 31.25 427.16 27.5 423.16 21.5 417.16 17.5 412.16 17.5 407.16 17.5 401.16 14.5 400.16 12.5 405.16 13.5 411.16 8.66 414.85 6.22 414.85 7.62 408.5 9.43 401.21 12.11 391.7 15.05 382.51 18.34 373.4 22.24 363.7 27.85 351.34 33.36 340.56 38.66 331.16 44.8 321.23 50.53 312.7 58.02 302.48 65.49 293.16 74.25 283.16 85.91 271.16 91.5 273.16 97.5 273.4 100.5 274.16 105.17 281.16 108.5 278.16 113.5 278.16 117.81 281.16 122.79 281.16 126.5 279.16 132.5 278.16 136.5 279.15 141.94 281.16 148.83 281.16 151.51 278 156.5 276.16 156.5 271.16 161.47 268.16 164.91 268.16 168.36 268.16 166.45 271.16 169.13 276.16 174.5 278.16 178.5 276.16 182.5 276.16 187.89 276.16 189.43 281.16 184.06 283.16 178.5 283.16 171.71 283.16 167.98 283.16 164.91 285.27 162.23 288.16 158.98 290.66 154.96 290.66 151.51 290.66 148.06 293.16 143.5 295.16 139.25 298.16 134.66 298.16 132.5 305.16 132.5 310.16 135.86 314 139.5 315.16 143.5 316.16 147.68 319.16 149.98 321.23 148.45 325.16 147.68 331.16 151.51 331.16 156.5 328.55 158.98 325.16 163.38 321.23 166.45 321.23 170.28 319.16 171.71 312.85 176.5 310.16 178.5 304.42 182.5 301.16 185.21 298.16 189.81 298.16 194.77 296.38 197.66 298.16 199.77 298.16 200.91 301.16 202.83 305.95 207.04 308.16 210.5 305.16 213.5 301.16 217.77 301.16 217.5 305.16 214.7 308.16 218.5 312.16 217.5 315.16 215.85 319.16 213.5 321.23 213.5 325.16 218.15 325.16 221.21 321.23 225.81 321.23 226.96 325.16 226.96 331.16 223.2 331.16 217.38 334.3 213.5 334.3 205.37 334.3 201.3 334.3 194.77 334.3 189.04 334.3 185.21 337.16 180.23 340.04 180.23 342.16 182.5 344.25 185.98 342.16 189.5 340.16 192.5 340.42 192.5 343.87 192.5 347.16 197.66 347.16 200.53 347.16 205.37 347.16 205.37 352.3 200.5 353.16 194.77 354.59 192.5 356.13 186.5 356.16 180.23 355.36 178.5 354.21 174.5 355.16 171.71 358.04 166.45 360.72 162.5 363.16 158.98 366.85 153.5 369.16 151.51 373.74 146 374.13 143.85 376.81 141.5 379.16 141.5 385.16 138.5 389.16 134.66 393.27 128.5 395.16 124.5 397.16 120.68 398.64 120.68 402.85 119.69 409.36 120.68 413.57 119.69 418.17 117.5 421.16 113.5 421.16 113.5 415.16 112.5 410.16 110.5 408.16 107.5 406.16 102.87 406.3 100.5 403.16 97.5 402.85 94.5 405.16 90.5 407.16 86.5 407.16 82.5 406.16 77.5 405.16 73.5 405.16 71.5 407.16 68.5 408.16 64.5 411.16 62.5 415.16 61.5 418.16 61.5 421.16 60.74 427.16 60.74 433.66 61.89 440.16 65.34 443.91 69.17 443.91 72.23 443.91 74.53 447.66 77.21 443.91 79.13 440.16 82.5 438.16 86.5 438.16 89.5 437.16 91.77 440.16 90.62 443.91 89.85 447.66 89.47 451.16 90.5 455.16 93.5 455.16 97.5 453.79 99.5 456.16 100.5 459.16 100.5 462.16 102.87 466.81 100.57 470.66 102.5 474.16 106.5 475.16 111.5 475.16 115.5 474.16 119.69 477.91 124.5 478.16 126.5 475.16 130.5 473.16 131.5 469.16 135.86 467.95 139.5 467.16 138.11 471.13 139.5 476.16 143.85 479.44 143.85 474.47 143.85 470.66 143.85 468.72 149.5 468.16 151.51 470.66 154.5 474.16 158.98 473.7 164.5 474.16 168.5 474.16 171.71 476.38 175.5 480.16 182.5 484.04 189.5 487.16 194.77 489.4 202.5 493.16 205.37 498.21 207.04 502.66 209.5 505.16 207.5 507.16 202.83 509.7 202.83 512.76 207.04 514.29 209.5 511.16 213.5 510.47 213.5 512.76 215.5 516.16 221.5 516.16 226.5 516.16 228.5 521.16 232.89 520.04 236.5 519.16 240.5 520.16 245.5 523.16 249.5 526.16 251.5 529.16 256.5 529.16 258.75 529.23 265.5 529.62"/><circle class="cls-3" cx="192.5" cy="387.16" r="50"/><circle class="cls-3" cx="390.5" cy="387.16" r="50"/><path class="cls-4" d="M448.5,564.75a45.76,45.76,0,0,1-12.88,10.07c-26.44,13.73-52.15-8-93.12-17.66-8.68-2-60.2-14.21-113,4-26.58,9.16-51.44,25.32-74,14a40.94,40.94,0,0,1-13-10.49h0a10.36,10.36,0,0,1,8.38-10.19,750.64,750.64,0,0,1,81.62-11.32c109-9.07,166.17-30.81,207.6,11.33A73.45,73.45,0,0,1,448.5,564.75Z"/><circle class="cls-4" cx="203" cy="379.66" r="15.5"/><circle class="cls-4" cx="395" cy="379.66" r="15.5"/><circle class="cls-5" cx="556" cy="225.66" r="29.5"/><path class="cls-5" d="M581.64,184.94l-4.47-2.17A15.27,15.27,0,0,1,570,162.45L643.1,9.2a15.29,15.29,0,0,1,20.77-7l15.4,7.91a15.28,15.28,0,0,1,6.3,21.15l-84,147.49A15.28,15.28,0,0,1,581.64,184.94Z"/></svg>